<svg width="98" height="100" viewBox="0 0 98 100" fill="none" xmlns="http://www.w3.org/2000/svg">
<path d="M36.8479 77.1524V67.8516C36.6096 67.629 36.3948 67.379 36.2151 67.1094C35.926 66.668 35.719 66.1758 35.6213 65.6524C34.2111 60.4219 31.8166 57.6876 29.3283 54.8404C28.4963 53.8873 27.6525 52.9224 26.8244 51.8521C24.5978 48.9732 22.4924 46.2505 20.9221 43.1099C19.3244 39.9146 18.301 36.3287 18.301 31.8089C18.301 27.637 19.1096 23.6448 20.5744 19.9849C22.0978 16.188 24.3283 12.7505 27.1056 9.83993C29.8751 6.93763 33.1876 4.55872 36.8868 2.86332C40.461 1.22272 44.3907 0.226625 48.5278 0.015625H48.5356C48.6606 0.003906 48.7622 0 48.8403 0V0.0039063C48.9458 0.0039063 49.0513 0.0078125 49.1489 0.0156253L49.2387 0.0195316C53.3481 0.238282 57.2504 1.23433 60.8047 2.86333C64.5 4.55863 67.8125 6.93753 70.582 9.83993C73.3593 12.7501 75.5937 16.1876 77.1132 19.9849C78.582 23.649 79.3866 27.6372 79.3866 31.8089C79.3866 36.3284 78.3632 39.9144 76.7655 43.1099C75.1991 46.2466 73.0897 48.9732 70.8632 51.8521C70.0429 52.9146 69.203 53.8794 68.371 54.8287C65.8319 57.7389 63.3944 60.5357 61.9921 65.9107C61.8632 66.399 61.6523 66.8482 61.375 67.2349C61.2148 67.4576 61.0351 67.6607 60.8359 67.8443V77.1568H61.039C62.1328 77.1568 63.1249 77.6021 63.8437 78.3209C64.5625 79.0397 65.0078 80.0318 65.0078 81.1256V96.0206C65.0078 97.1144 64.5625 98.1065 63.8437 98.8253C63.1249 99.5441 62.1328 99.9933 61.039 99.9933H36.629C35.5352 99.9933 34.5431 99.548 33.8204 98.8253C33.1017 98.1066 32.6563 97.1144 32.6563 96.0206V81.1256C32.6563 80.0318 33.1016 79.0397 33.8204 78.3209C34.5392 77.6021 35.5352 77.1568 36.629 77.1568H36.8321L36.8479 77.1524ZM11.4689 57.2504C14.9455 57.2504 17.8869 59.5551 18.84 62.7231H18.8595C21.6017 62.7231 23.8243 64.9458 23.8243 67.6879C23.8243 70.4301 21.6016 72.6527 18.8595 72.6527H3.8125C1.707 72.6527 0 70.9457 0 68.8402C0 66.7464 1.6836 65.0511 3.7695 65.0277V64.9535C3.7695 60.6996 7.2148 57.2543 11.4687 57.2543L11.4689 57.2504ZM41.3789 60.9848C40.4648 55.6332 39.1641 53.9028 37.957 50.3048C36.1132 44.8126 34.4687 39.9138 34.4687 31.8048C34.4687 23.9923 35.8242 16.8398 38.0312 11.5078C38.3241 10.8047 38.6288 10.1289 38.953 9.48832C36.3827 10.7813 34.0625 12.5078 32.0937 14.5703C27.8242 19.0469 25.1992 25.1173 25.1992 31.8003C25.1992 38.5034 28.5311 42.8123 32.2655 47.6443C35.5194 51.8513 39.0468 54.2654 41.375 60.9803L41.3789 60.9848ZM58.7499 9.48882C59.0741 10.1333 59.3827 10.8052 59.6717 11.5083C61.8787 16.8364 63.2343 23.9883 63.2343 31.8053C63.2343 39.9186 61.5897 44.8133 59.7459 50.3053C58.5389 53.903 57.2382 55.6334 56.3241 60.9853C58.6561 54.2705 62.1795 51.8564 65.4334 47.6493C69.1678 42.8212 72.4998 38.5126 72.4998 31.8053C72.4998 25.1178 69.8748 19.0513 65.6053 14.5753C63.6365 12.5128 61.3201 10.7862 58.7459 9.49332L58.7499 9.48882ZM47.3479 62.0278H50.3557C51.3361 55.2192 52.8869 52.7466 54.3166 48.4888C55.9924 43.4927 57.4885 39.0357 57.4885 31.8048C57.4885 24.7228 56.3049 18.3438 54.3752 13.6878C52.7854 9.84802 50.8322 7.33231 48.8518 6.90661C46.8674 7.33239 44.9182 9.84802 43.3284 13.6878C41.4026 18.344 40.2151 24.7228 40.2151 31.8048C40.2151 39.0353 41.7112 43.4928 43.387 48.4888C44.8167 52.7466 46.3675 55.2193 47.3479 62.0278ZM85.3439 68.9848C88.8205 68.9848 91.758 71.2895 92.715 74.4575H92.7345C95.4767 74.4575 97.6993 76.6802 97.6993 79.4223C97.6993 82.1645 95.4766 84.3871 92.7345 84.3871H77.6875C75.582 84.3871 73.875 82.6801 73.875 80.5746C73.875 78.4848 75.5586 76.7855 77.6445 76.7621V76.6879C77.6445 72.434 81.0898 68.9887 85.3437 68.9887L85.3439 68.9848ZM39.1489 68.4536V77.1528H44.0512V68.4536H39.1489ZM38.1333 65.852C38.2036 65.9613 38.2895 66.0629 38.3872 66.1527H59.3052C59.3872 66.0785 59.4575 65.9926 59.5239 65.9027C59.645 65.7348 59.7349 65.5434 59.7896 65.3324C61.3287 59.434 63.9419 56.4379 66.6607 53.3164C67.4614 52.3985 68.2701 51.4687 69.063 50.4453C71.2114 47.668 73.2466 45.0391 74.7232 42.0781C76.1724 39.1758 77.1021 35.9179 77.1021 31.8011C77.1021 27.9183 76.356 24.2152 74.9966 20.8281C73.5825 17.3047 71.5122 14.1133 68.9302 11.4101C66.3599 8.71484 63.2857 6.50784 59.8638 4.93744C56.5708 3.42574 52.9457 2.49993 49.1297 2.29683L49.0243 2.29293V2.28902L49.0008 2.28512C48.9501 2.28121 48.8993 2.2773 48.8524 2.2773V2.28121H48.7235L48.6493 2.28512C44.8095 2.48043 41.1649 3.40622 37.8523 4.92572C34.4265 6.49602 31.3523 8.70692 28.782 11.4023C26.2039 14.1054 24.1297 17.2968 22.7156 20.8203C21.3601 24.207 20.6101 27.9101 20.6101 31.7933C20.6101 35.9105 21.5398 39.1683 22.989 42.0703C24.4656 45.0312 26.5007 47.6562 28.6492 50.4375C29.4421 51.4648 30.2586 52.3984 31.0633 53.3164C33.7352 56.375 36.3055 59.3125 37.8524 65.0464C37.868 65.0933 37.8797 65.1402 37.8875 65.1909C37.9305 65.4292 38.0164 65.648 38.1414 65.8355L38.1333 65.852ZM58.5553 77.153V68.4538H54.0787V77.153H58.5553ZM51.7819 68.4538H46.3522V77.153H51.7819V68.4538ZM61.0592 79.4498H36.6492C36.1921 79.4498 35.7703 79.6373 35.4695 79.942C35.1648 80.2466 34.9773 80.6646 34.9773 81.1217V96.0167C34.9773 96.4737 35.1648 96.8956 35.4695 97.1964C35.7742 97.501 36.1921 97.6885 36.6492 97.6885H61.0592C61.5162 97.6885 61.9381 97.501 62.2389 97.1964C62.5436 96.8917 62.7311 96.4737 62.7311 96.0167V81.1217C62.7311 80.6646 62.5436 80.2427 62.2389 79.942C61.9342 79.6373 61.5162 79.4498 61.0592 79.4498Z" fill="black"/>
</svg>
