<svg width="109" height="108" viewBox="0 0 109 108" fill="none" xmlns="http://www.w3.org/2000/svg">
<path d="M65.2576 60.233C64.8967 60.4977 64.6557 60.8949 64.5876 61.3373C64.5196 61.7797 64.63 62.231 64.8946 62.592C65.1621 62.949 65.5589 63.187 65.9998 63.255C66.4407 63.3229 66.8907 63.2154 67.2533 62.9554C72.1267 59.3818 74.0849 56.0991 73.2407 52.919C71.8902 47.8326 63.1379 44.4362 46.4838 42.5348C46.0391 42.484 45.5924 42.612 45.242 42.8905C44.8916 43.169 44.6662 43.5753 44.6154 44.0201C44.5646 44.4648 44.6925 44.9114 44.9711 45.2618C45.2496 45.6122 45.6559 45.8376 46.1006 45.8884C66.9431 48.2676 69.6465 52.5338 69.9786 53.785C70.4066 55.3971 68.7298 57.6869 65.2576 60.233Z" fill="black"/>
<path d="M59.258 35.4495C58.8136 35.3962 58.3662 35.5215 58.0143 35.798C57.6623 36.0745 57.4346 36.4795 57.3812 36.9238C57.3278 37.3682 57.4532 37.8156 57.7296 38.1676C58.0061 38.5196 58.4111 38.7473 58.8555 38.8007C59.2032 38.8423 93.7146 43.1463 102.558 57.1008C108.9 67.1087 99.7576 77.1324 88.9326 86.4722C88.5937 86.7646 88.3849 87.1797 88.3521 87.6261C88.3192 88.0725 88.4651 88.5137 88.7575 88.8526C89.0536 89.1854 89.4677 89.3899 89.912 89.4227C90.3563 89.4554 90.7958 89.3139 91.1376 89.0281C98.618 82.5731 114.184 69.1415 105.409 55.2946C95.7102 39.9901 60.742 35.6279 59.258 35.4495Z" fill="black"/>
<path d="M64.1425 77.625C64.047 77.625 63.9546 77.6376 63.8595 77.6393L65.1387 81.0505C67.8156 81.2732 70.337 82.4004 72.2881 84.2467C74.2392 86.093 75.5038 88.5484 75.8737 91.209C76.2437 93.8696 75.697 96.5769 74.3236 98.8855C72.9503 101.194 70.832 102.966 68.3174 103.911C65.8027 104.855 63.0415 104.916 60.4879 104.082C57.9343 103.249 55.7404 101.571 54.2673 99.3248C52.7942 97.0785 52.1295 94.3978 52.3826 91.7236C52.6357 89.0493 53.7915 86.5409 55.6599 84.6109L54.3793 81.1958C51.6522 83.4942 49.8219 86.6797 49.2097 90.1931C48.5974 93.7066 49.2424 97.3234 51.0313 100.409C52.8203 103.494 55.6388 105.85 58.9922 107.064C62.3456 108.278 66.0195 108.272 69.3689 107.047C72.7183 105.822 75.5292 103.457 77.308 100.366C79.0868 97.2745 79.7199 93.6556 79.0962 90.1441C78.4724 86.6327 76.6317 83.4532 73.8971 81.1639C71.1625 78.8745 67.7089 77.6215 64.1425 77.625Z" fill="black"/>
<path d="M15.205 104.625C13.0904 104.628 11.0138 104.063 9.19194 102.99C7.37008 101.916 5.86982 100.373 4.84776 98.5219C3.8257 96.6706 3.31932 94.579 3.38148 92.4653C3.44365 90.3516 4.07208 88.2933 5.20117 86.5053C6.33026 84.7174 7.91861 83.2653 9.80041 82.3007C11.6822 81.336 13.7884 80.8943 15.8992 81.0214C18.01 81.1486 20.048 81.84 21.8004 83.0236C23.5528 84.2072 24.9553 85.8394 25.8616 87.75H29.5064C29.1428 86.734 28.672 85.7597 28.1018 84.8436C28.8373 84.6828 29.6257 84.4791 30.451 84.2375L29.9675 80.8696C28.5691 81.3392 27.1254 81.661 25.66 81.8298C25.421 81.6015 25.1779 81.3775 24.9245 81.165L27.7287 76.7584C26.767 76.7121 26.105 76.6822 26.0881 76.6816C26.0436 76.6795 25.9983 76.6766 25.9538 76.6733C25.2962 76.624 24.6462 76.5002 24.0165 76.3042L22.1129 79.2956C19.9767 78.1952 17.608 77.6223 15.205 77.625C12.4199 77.6218 9.68759 78.3845 7.30678 79.8297C4.92597 81.2748 2.98839 83.3469 1.70594 85.8191C0.423482 88.2914 -0.154465 91.0687 0.0353002 93.8473C0.225065 96.626 1.17523 99.2989 2.7819 101.574C4.38856 103.849 6.58985 105.638 9.14503 106.746C11.7002 107.854 14.5109 108.238 17.2697 107.857C20.0285 107.475 22.6292 106.342 24.7873 104.581C26.9455 102.821 28.578 100.501 29.5064 97.875H25.8616C24.9044 99.892 23.3954 101.596 21.5094 102.791C19.6234 103.986 17.4376 104.622 15.205 104.625Z" fill="black"/>
<path d="M39.2743 65.5373C39.2413 65.534 37.78 65.4656 37.78 65.4656L37.8019 65.3381L34.4181 65.1005L34.1294 66.7782C34.0939 67.0133 34.1075 67.2533 34.1695 67.4829C34.2315 67.7125 34.3405 67.9267 34.4895 68.1121C34.6386 68.2974 34.8244 68.4498 35.0354 68.5596C35.2464 68.6694 35.4778 68.7342 35.7151 68.7499L38.6851 68.8859C38.7263 69.7626 39.3974 84.0709 39.6726 90.2665C39.68 90.3732 39.6661 90.4803 39.6315 90.5815C39.597 90.6827 39.5427 90.776 39.4717 90.8559C39.4007 90.9359 39.3144 91.0008 39.218 91.047C39.1216 91.0932 39.0169 91.1197 38.9101 91.125C38.7026 91.113 38.5076 91.0222 38.3648 90.8712C38.2221 90.7202 38.1424 90.5204 38.1421 90.3126L35.4815 71.7756C35.4265 71.3918 35.241 71.0386 34.9562 70.7756C34.6713 70.5125 34.3046 70.3556 33.9176 70.3312C31.0207 70.1483 26.4517 69.9407 26.4372 69.9406C26.1382 69.9059 25.8496 69.8105 25.5889 69.6601C25.3283 69.5097 25.1012 69.3076 24.9215 69.0662C24.7419 68.8248 24.6135 68.5491 24.5444 68.2563C24.4752 67.9634 24.4667 67.6595 24.5194 67.3632L26.4479 56.0336C26.5182 55.4816 26.6973 54.9491 26.9747 54.4668C27.2521 53.9844 27.6224 53.5619 28.0641 53.2235C28.5058 52.8851 29.0102 52.6377 29.5481 52.4954C30.086 52.3532 30.6468 52.3189 31.198 52.3947C32.2297 52.2111 33.2929 52.3524 34.2408 52.7991C35.1887 53.2458 35.9745 53.9758 36.4897 54.8882L36.6116 55.1045L39.0334 55.2746C38.9049 54.3709 38.5936 53.5028 38.1187 52.7234C37.6437 51.9439 37.0149 51.2693 36.2706 50.7409C36.9349 50.2302 37.4731 49.5738 37.8436 48.8222C38.2142 48.0707 38.4072 47.2442 38.4079 46.4062V43.0312C38.4079 41.5767 37.8301 40.1817 36.8015 39.1532C35.773 38.1247 34.378 37.5469 32.9235 37.5469C31.4689 37.5469 30.074 38.1247 29.0455 39.1532C28.0169 40.1817 27.4391 41.5767 27.4391 43.0312V46.4062C27.4396 47.4284 27.7278 48.4298 28.2708 49.2958C27.6786 49.4855 27.1133 49.751 26.5892 50.0857C26.3806 50.22 26.183 50.3678 25.9902 50.521L21.4394 49.8653C20.3308 49.6311 19.1747 49.828 18.2062 50.4159C17.2377 51.0039 16.5295 51.9387 16.2257 53.0302L12.7872 63.9182C12.0055 66.6738 14.1237 68.8184 16.519 69.1224C16.519 69.1224 21.5742 70.0076 21.5909 70.01C21.7777 70.445 22.0192 70.8544 22.3095 71.2285C22.7825 71.8311 23.3767 72.3277 24.0537 72.6863C24.7308 73.0448 25.4755 73.2572 26.2398 73.3098C26.2785 73.3115 29.5835 73.4615 32.3368 73.618L34.7923 90.7171C34.8833 91.7476 35.3561 92.7069 36.1179 93.4067C36.8797 94.1066 37.8756 94.4965 38.9101 94.5C39.4698 94.485 40.021 94.3596 40.5321 94.1309C41.0432 93.9022 41.5041 93.5748 41.8883 93.1675C42.2725 92.7602 42.5724 92.2809 42.7708 91.7573C42.9692 91.2337 43.0621 90.6761 43.0444 90.1165C42.7725 83.991 42.1133 69.9348 42.0581 68.764C42.0891 67.9735 41.819 67.2008 41.3023 66.6018C40.7856 66.0029 40.0607 65.6224 39.2743 65.5373ZM30.8141 43.0312C30.8141 42.4718 31.0364 41.9353 31.4319 41.5397C31.8275 41.1441 32.3641 40.9219 32.9235 40.9219C33.4829 40.9219 34.0195 41.1441 34.415 41.5397C34.8106 41.9353 35.0329 42.4718 35.0329 43.0312V46.4062C35.0329 46.9657 34.8106 47.5022 34.415 47.8978C34.0195 48.2934 33.4829 48.5156 32.9235 48.5156C32.3641 48.5156 31.8275 48.2934 31.4319 47.8978C31.0364 47.5022 30.8141 46.9657 30.8141 46.4062V43.0312ZM23.1248 55.4436L21.2383 66.5256L17.1081 65.7993C16.5009 65.6905 16.0283 65.2332 16.0497 64.7957L19.421 54.1145C19.7584 53.1855 20.1873 53.073 20.9079 53.1979L23.682 53.5972C23.4297 54.1906 23.2429 54.8097 23.1248 55.4436Z" fill="black"/>
<path d="M46.4185 60.8681C46.4497 60.4217 46.3024 59.9811 46.0089 59.6434C45.7154 59.3056 45.2997 59.0982 44.8533 59.0669L34.676 58.3558C34.6223 58.3389 34.5718 58.3132 34.5265 58.28L33.5488 56.5463C33.44 56.3531 33.2943 56.1832 33.1198 56.0463C32.9454 55.9095 32.7457 55.8084 32.5321 55.7487C32.3186 55.6891 32.0954 55.6721 31.8752 55.6988C31.6551 55.7254 31.4424 55.7952 31.2493 55.9041C31.0561 56.013 30.8864 56.1589 30.7496 56.3335C30.6129 56.5081 30.5119 56.7078 30.4525 56.9214C30.393 57.135 30.3762 57.3583 30.403 57.5784C30.4299 57.7985 30.4998 58.0111 30.6089 58.2042L31.7332 60.1973C32.0524 60.6552 32.4742 61.032 32.965 61.2977C33.4558 61.5634 34.002 61.7105 34.5598 61.7275L44.6169 62.4336C45.0623 62.4603 45.5004 62.3113 45.8372 62.0186C46.1741 61.7259 46.3827 61.3128 46.4185 60.8681Z" fill="black"/>
<path d="M54.0166 6.67543C54.4641 6.67541 54.8934 6.49761 55.2098 6.18115C55.5263 5.86468 55.7041 5.43548 55.7041 4.98793V1.6875C55.7041 1.23995 55.5263 0.810725 55.2098 0.494257C54.8934 0.17779 54.4642 0 54.0166 0C53.569 0 53.1398 0.17779 52.8234 0.494257C52.5069 0.810725 52.3291 1.23995 52.3291 1.6875V4.98793C52.3291 5.43548 52.5069 5.86468 52.8234 6.18115C53.1398 6.49761 53.5691 6.67541 54.0166 6.67543Z" fill="black"/>
<path d="M43.7728 9.4883C44.1071 9.78237 44.5425 9.93513 44.9872 9.91438C45.4319 9.89362 45.8512 9.70098 46.1566 9.37706C46.3058 9.21325 46.4214 9.02164 46.4965 8.81318C46.5717 8.60472 46.6051 8.3835 46.5948 8.16214C46.5844 7.94078 46.5306 7.72362 46.4363 7.52307C46.3421 7.32252 46.2092 7.1425 46.0454 6.9933L43.6484 4.81018C43.4848 4.66004 43.2931 4.54368 43.0843 4.46779C42.8756 4.39189 42.654 4.35795 42.4321 4.36791C42.2102 4.37786 41.9925 4.43152 41.7914 4.52581C41.5903 4.6201 41.4098 4.75315 41.2602 4.91735C41.1107 5.08155 40.995 5.27365 40.9198 5.48265C40.8447 5.69165 40.8115 5.91343 40.8223 6.13527C40.833 6.35711 40.8875 6.57464 40.9825 6.7754C41.0775 6.97615 41.2112 7.15618 41.3759 7.30515L43.7728 9.4883Z" fill="black"/>
<path d="M62.0427 9.37507C62.3118 9.65644 62.6675 9.83945 63.0529 9.89483C63.4383 9.95021 63.8311 9.87476 64.1686 9.68055C64.6309 9.40153 66.7727 7.35329 66.8251 7.30565C67.1529 7.00368 67.3479 6.58427 67.3676 6.13899C67.3873 5.69371 67.23 5.25872 66.9301 4.92899C66.6302 4.59927 66.212 4.40159 65.7669 4.3791C65.3217 4.35662 64.8858 4.51116 64.5542 4.809L62.1556 6.9913C61.9917 7.1404 61.8587 7.32033 61.7643 7.52082C61.6699 7.72131 61.6159 7.93844 61.6054 8.1598C61.5949 8.38116 61.6281 8.60241 61.7032 8.81093C61.7782 9.01945 61.8936 9.21114 62.0427 9.37507Z" fill="black"/>
<path d="M47.5943 6.37171C47.788 6.77153 48.128 7.08153 48.544 7.23752C48.96 7.39352 49.4201 7.38355 49.8289 7.20968C50.2363 7.02445 50.5535 6.68497 50.7106 6.26591C50.8678 5.84685 50.852 5.38253 50.6669 4.97507L49.3703 2.12206C49.2786 1.92031 49.1481 1.7386 48.9862 1.5873C48.8242 1.436 48.6341 1.31808 48.4266 1.24026C48.2191 1.16245 47.9983 1.12627 47.7768 1.13378C47.5553 1.1413 47.3375 1.19237 47.1357 1.28407C46.934 1.37578 46.7523 1.50632 46.601 1.66825C46.4497 1.83018 46.3317 2.02033 46.2539 2.22783C46.1761 2.43533 46.1399 2.65613 46.1475 2.87762C46.155 3.0991 46.206 3.31694 46.2977 3.51869L47.5943 6.37171Z" fill="black"/>
<path d="M58.3977 7.21861C58.8062 7.39242 59.2658 7.4031 59.6819 7.24846C60.098 7.09382 60.439 6.78561 60.6348 6.38722L61.94 3.53787C62.1264 3.13097 62.1436 2.66668 61.9876 2.24714C61.8317 1.82761 61.5155 1.48719 61.1086 1.30079C60.7017 1.11438 60.2374 1.09725 59.8179 1.25317C59.3984 1.40909 59.0579 1.72528 58.8715 2.13219L57.5663 4.98151C57.38 5.38843 57.3629 5.8527 57.5188 6.27222C57.6747 6.69173 57.9909 7.03215 58.3977 7.21861Z" fill="black"/>
<path d="M64.5032 12.6161C64.6714 13.0277 64.992 13.3585 65.3981 13.5396C65.8042 13.7206 66.2645 13.738 66.6831 13.588L69.8088 12.3899C70.0157 12.3106 70.205 12.1913 70.3659 12.0389C70.5267 11.8864 70.656 11.7037 70.7462 11.5013C70.8364 11.2989 70.8859 11.0807 70.8919 10.8591C70.8978 10.6376 70.86 10.4171 70.7807 10.2101C70.7014 10.0032 70.5821 9.81388 70.4296 9.65304C70.2771 9.4922 70.0945 9.36297 69.8921 9.27272C69.6896 9.18248 69.4714 9.13298 69.2499 9.12707C69.0283 9.12115 68.8078 9.15893 68.6009 9.23824L65.4751 10.4363C65.0573 10.5966 64.7202 10.9163 64.5379 11.325C64.3557 11.7338 64.3432 12.1982 64.5032 12.6161Z" fill="black"/>
<path d="M38.2656 12.7792L41.4259 13.8994C41.848 14.0435 42.3097 14.0167 42.7123 13.8248C43.1149 13.6328 43.4264 13.291 43.5802 12.8724C43.7296 12.4505 43.7054 11.9865 43.5128 11.5825C43.3202 11.1785 42.975 10.8676 42.5531 10.7181L39.3928 9.59788C38.9709 9.4484 38.507 9.47263 38.1029 9.66524C37.6989 9.85785 37.388 10.2031 37.2385 10.6249C37.089 11.0468 37.1133 11.5108 37.3059 11.9148C37.4985 12.3188 37.8437 12.6298 38.2656 12.7792Z" fill="black"/>
<path d="M48.4954 15.5396C48.8296 14.3334 49.5496 13.2698 50.5454 12.5114C51.5412 11.753 52.7579 11.3415 54.0095 11.3399C55.2612 11.3383 56.479 11.7465 57.4767 12.5023C58.4745 13.2581 59.1972 14.3199 59.5346 15.5252C59.6294 15.9626 59.8941 16.3444 60.2705 16.5866C60.6468 16.8289 61.104 16.9117 61.5414 16.8168C61.9788 16.722 62.3606 16.4573 62.6028 16.0809C62.845 15.7046 62.9278 15.2474 62.833 14.81C62.3317 12.8499 61.1915 11.1127 59.5926 9.87309C57.9936 8.63343 56.0272 7.96198 54.004 7.96485C51.9808 7.96773 50.0163 8.64477 48.4209 9.88897C46.8255 11.1332 45.6902 12.8736 45.1946 14.8351C45.1023 15.2724 45.1873 15.7283 45.4308 16.1031C45.6743 16.4778 46.0565 16.7406 46.4935 16.8339C46.9306 16.9271 47.3868 16.8433 47.7621 16.6006C48.1373 16.358 48.4011 15.9765 48.4954 15.5396Z" fill="black"/>
<path d="M2.86672 33.2852L11.0187 25.5386C11.6477 24.9383 12.4847 24.6049 13.3541 24.6084C14.2235 24.6119 15.0578 24.9519 15.682 25.5572C15.8416 25.7112 16.0299 25.8324 16.2363 25.9136C16.4427 25.9948 16.6631 26.0345 16.8849 26.0305C17.1067 26.0265 17.3255 25.9788 17.5288 25.8902C17.7321 25.8015 17.916 25.6737 18.0699 25.5139L25.3913 17.9098C25.8553 17.4253 26.4116 17.0385 27.0274 16.7722C27.6431 16.5058 28.306 16.3654 28.9768 16.3591C30.3292 16.352 31.6301 16.8774 32.5982 17.8217L35.3695 20.5622C36.209 19.7664 37.1783 19.1197 38.2354 18.6501L34.9713 15.4222C34.1767 14.6364 33.2339 14.0163 32.1977 13.5978C31.1615 13.1793 30.0525 12.9709 28.9351 12.9845C27.8176 12.9982 26.714 13.2336 25.6884 13.6773C24.6627 14.1209 23.7353 14.7639 22.9602 15.5689L16.6638 22.1084C15.4059 21.3943 13.9514 21.1044 12.5159 21.2816C11.0803 21.4588 9.73999 22.0937 8.69347 23.0922L0.541462 30.8388C0.218335 31.1475 0.0308118 31.5717 0.0200237 32.0184C0.00923565 32.4651 0.176063 32.8979 0.483916 33.2218C0.791768 33.5456 1.21551 33.7342 1.6622 33.7461C2.1089 33.758 2.54207 33.5922 2.86672 33.2852Z" fill="black"/>
<path d="M72.6619 20.5639L75.4345 17.8221C76.4022 16.8772 77.7033 16.3518 79.0559 16.3596C79.7267 16.3658 80.3894 16.5062 81.0052 16.7726C81.6209 17.0389 82.1771 17.4257 82.641 17.9103L89.9628 25.5143C90.1167 25.6742 90.3006 25.802 90.504 25.8907C90.7074 25.9793 90.9263 26.027 91.1481 26.031C91.37 26.0366 91.5908 25.9977 91.7974 25.9164C92.004 25.835 92.1921 25.7131 92.3507 25.5576C92.9748 24.9523 93.8091 24.6122 94.6786 24.6087C95.548 24.6052 96.385 24.9387 97.014 25.5391C97.014 25.5391 105.161 33.2811 105.166 33.2857C105.493 33.5884 105.926 33.7514 106.371 33.7401C106.817 33.7288 107.24 33.544 107.552 33.2251C107.86 32.9006 108.027 32.467 108.015 32.0197C108.004 31.5723 107.816 31.1477 107.491 30.8393L99.3392 23.0927C98.2927 22.0941 96.9524 21.4591 95.5169 21.2819C94.0813 21.1047 92.6268 21.3947 91.3689 22.1089L85.0721 15.5694C84.297 14.7644 83.3697 14.1214 82.344 13.6778C81.3184 13.2341 80.2148 12.9986 79.0974 12.985C77.98 12.9714 76.871 13.1798 75.8349 13.5983C74.7987 14.0168 73.856 14.6369 73.0614 15.4227L69.7881 18.6597C70.8472 19.1267 71.819 19.7707 72.6619 20.5639Z" fill="black"/>
<path d="M63.5621 25.389C64.202 24.8369 65.0266 24.5465 65.8712 24.5757C66.7159 24.605 67.5185 24.9517 68.1186 25.5468L71.9464 29.3054C72.2399 29.5932 72.6283 29.7641 73.0388 29.7861C73.4492 29.808 73.8536 29.6794 74.1761 29.4245C74.4346 29.2199 74.7593 29.1173 75.0885 29.1361C75.4177 29.1549 75.7285 29.2939 75.962 29.5266L78.1377 31.6957C78.2947 31.8522 78.4809 31.9762 78.6858 32.0607C78.8907 32.1452 79.1102 32.1885 79.3318 32.1882C79.5535 32.1878 79.7728 32.1438 79.9775 32.0587C80.1821 31.9736 80.3679 31.849 80.5244 31.692C80.6808 31.5351 80.8049 31.3488 80.8894 31.144C80.9739 30.9391 81.0172 30.7196 81.0168 30.4979C81.0165 30.2763 80.9725 30.0569 80.8874 29.8523C80.8022 29.6477 80.6776 29.4619 80.5207 29.3054L78.3446 27.1363C77.713 26.507 76.9163 26.0693 76.0465 25.8738C75.1766 25.6782 74.2692 25.7329 73.4292 26.0313L70.483 23.1384C69.2826 21.9484 67.6776 21.2551 65.9884 21.1966C64.2991 21.1382 62.65 21.7191 61.3703 22.8232L55.2132 28.0826C54.9103 28.3425 54.5249 28.4863 54.1258 28.4883C53.7268 28.4902 53.34 28.3502 53.0346 28.0933L46.645 22.7461C45.3619 21.6652 43.7211 21.1028 42.0447 21.1694C40.3682 21.2359 38.7772 21.9266 37.5838 23.1058L34.6043 26.0313C33.7641 25.733 32.8567 25.6785 31.9868 25.874C31.1169 26.0695 30.3201 26.5071 29.6884 27.1363L27.5127 29.3054C27.1958 29.6214 27.0173 30.0504 27.0166 30.4979C27.0159 30.9455 27.193 31.375 27.509 31.692C27.825 32.009 28.254 32.1875 28.7016 32.1882C29.1492 32.1889 29.5787 32.0117 29.8957 31.6957L32.071 29.5266C32.3045 29.2937 32.6154 29.1546 32.9447 29.1358C33.274 29.1169 33.5988 29.2197 33.8574 29.4245C34.1798 29.6794 34.5842 29.808 34.9947 29.786C35.4052 29.7641 35.7936 29.5932 36.087 29.3054L39.9486 25.5143C40.5451 24.9246 41.3406 24.5791 42.1788 24.5458C43.017 24.5125 43.8373 24.7937 44.4788 25.3342L50.8683 30.6814C51.7848 31.4521 52.9454 31.8719 54.1429 31.8658C55.3403 31.8598 56.4966 31.4283 57.4053 30.6485L63.5621 25.389Z" fill="black"/>
<path d="M60.8869 88.9398C59.9778 89.7059 59.3676 90.7677 59.1634 91.9389C58.9592 93.1101 59.1741 94.3157 59.7704 95.3442C60.3667 96.3727 61.3062 97.1583 62.424 97.5631C63.5418 97.9678 64.7665 97.9659 65.883 97.5576C66.9995 97.1493 67.9365 96.3608 68.5296 95.3304C69.1226 94.3 69.3337 93.0937 69.1258 91.9232C68.9179 90.7526 68.3044 89.6927 67.3928 88.9296C66.4813 88.1664 65.3301 87.7487 64.1412 87.7498C64.1093 87.7498 64.0785 87.754 64.0467 87.7546L53.4035 59.3727L55.728 57.978C55.918 57.864 56.0837 57.7137 56.2156 57.5356C56.3476 57.3576 56.4431 57.1553 56.4969 56.9404C56.5506 56.7254 56.5615 56.502 56.5289 56.2828C56.4963 56.0636 56.4209 55.853 56.3069 55.663C56.1929 55.473 56.0426 55.3073 55.8645 55.1754C55.6865 55.0435 55.4842 54.9479 55.2693 54.8941C55.0543 54.8404 54.8309 54.8295 54.6117 54.8621C54.3925 54.8947 54.1819 54.9702 53.9919 55.0842L49.0217 58.0663C49.593 58.972 49.8604 60.0364 49.7851 61.1045C49.7733 61.2727 49.7308 61.43 49.7033 61.5928L50.4613 61.1381L54.3607 71.5365L50.9576 75.5549L49.2244 73.8218C49.7942 73.2076 50.3564 72.574 50.8927 71.9016L49.4815 68.1384C48.3447 69.78 47.0515 71.3076 45.6201 72.6999C45.6355 73.0297 45.7885 76.3116 45.8225 77.0414C46.1514 76.7724 46.4834 76.4792 46.8151 76.185L48.7691 78.139L46.0236 81.381C46.1029 83.0989 46.1809 84.7948 46.2512 86.3356L55.7183 75.1568L60.8869 88.9398ZM64.1412 91.1248C64.475 91.1248 64.8012 91.2238 65.0787 91.4092C65.3563 91.5946 65.5725 91.8582 65.7003 92.1665C65.828 92.4749 65.8614 92.8142 65.7963 93.1415C65.7312 93.4689 65.5705 93.7695 65.3345 94.0056C65.0985 94.2416 64.7978 94.4023 64.4704 94.4674C64.1431 94.5325 63.8038 94.4991 63.4954 94.3714C63.1871 94.2436 62.9235 94.0273 62.7381 93.7498C62.5527 93.4723 62.4537 93.1461 62.4537 92.8123C62.4542 92.3649 62.6322 91.936 62.9485 91.6196C63.2649 91.3033 63.6938 91.1253 64.1412 91.1248Z" fill="black"/>
<path d="M31.4388 91.125H19.9712C19.5731 89.9991 18.7898 89.0501 17.7598 88.4459C16.7297 87.8416 15.5192 87.621 14.3422 87.8229C13.1651 88.0249 12.0974 88.6364 11.3277 89.5495C10.5579 90.4625 10.1357 91.6183 10.1357 92.8125C10.1357 94.0067 10.5579 95.1625 11.3277 96.0756C12.0974 96.9886 13.1651 97.6002 14.3422 97.8021C15.5192 98.004 16.7297 97.7834 17.7598 97.1791C18.7898 96.5749 19.5731 95.6259 19.9712 94.5H32.6515C31.9965 93.5053 31.5842 92.3708 31.4479 91.1876L31.4388 91.125ZM15.204 94.5C14.8703 94.5 14.544 94.401 14.2665 94.2156C13.989 94.0302 13.7727 93.7666 13.645 93.4583C13.5173 93.1499 13.4838 92.8106 13.5489 92.4833C13.6141 92.1559 13.7748 91.8553 14.0108 91.6193C14.2468 91.3833 14.5475 91.2225 14.8748 91.1574C15.2022 91.0923 15.5415 91.1257 15.8498 91.2535C16.1582 91.3812 16.4217 91.5975 16.6071 91.875C16.7926 92.1525 16.8915 92.4788 16.8915 92.8125C16.891 93.2599 16.7131 93.6888 16.3967 94.0052C16.0803 94.3215 15.6514 94.4995 15.204 94.5Z" fill="black"/>
<path d="M9.29785 72.5625C9.29787 73.01 9.47567 73.4393 9.79213 73.7557C10.1086 74.0722 10.5378 74.25 10.9854 74.25H20.5207C20.2091 73.9585 19.919 73.6449 19.6527 73.3115C19.0761 72.5751 18.6182 71.753 18.2957 70.875H10.9854C10.5378 70.875 10.1086 71.0528 9.79213 71.3693C9.47567 71.6857 9.29787 72.115 9.29785 72.5625Z" fill="black"/>
<path d="M82.4893 54.8442C83.4212 54.8442 84.1768 54.0887 84.1768 53.1567C84.1768 52.2248 83.4212 51.4692 82.4893 51.4692C81.5573 51.4692 80.8018 52.2248 80.8018 53.1567C80.8018 54.0887 81.5573 54.8442 82.4893 54.8442Z" fill="black"/>
<path d="M87.2695 59.5493C88.2015 59.5493 88.957 58.7938 88.957 57.8618C88.957 56.9298 88.2015 56.1743 87.2695 56.1743C86.3376 56.1743 85.582 56.9298 85.582 57.8618C85.582 58.7938 86.3376 59.5493 87.2695 59.5493Z" fill="black"/>
<path d="M88.3223 66.0127C89.2542 66.0127 90.0098 65.2572 90.0098 64.3252C90.0098 63.3932 89.2542 62.6377 88.3223 62.6377C87.3903 62.6377 86.6348 63.3932 86.6348 64.3252C86.6348 65.2572 87.3903 66.0127 88.3223 66.0127Z" fill="black"/>
<path d="M84.9443 71.8115C85.8763 71.8115 86.6318 71.056 86.6318 70.124C86.6318 69.192 85.8763 68.4365 84.9443 68.4365C84.0124 68.4365 83.2568 69.192 83.2568 70.124C83.2568 71.056 84.0124 71.8115 84.9443 71.8115Z" fill="black"/>
<path d="M80.2822 76.6802C81.2142 76.6802 81.9697 75.9247 81.9697 74.9927C81.9697 74.0607 81.2142 73.3052 80.2822 73.3052C79.3502 73.3052 78.5947 74.0607 78.5947 74.9927C78.5947 75.9247 79.3502 76.6802 80.2822 76.6802Z" fill="black"/>
</svg>
