<svg width="102" height="98" viewBox="0 0 102 98" fill="none" xmlns="http://www.w3.org/2000/svg">
<path d="M99.5625 94.5V71.8875C99.5625 70.875 99.225 69.8625 98.7188 69.0188L96.1875 65.3063C95.85 62.6063 93.3188 60.5812 90.6188 60.75C88.2563 61.0875 86.4 62.9438 86.0625 65.3063L83.5312 69.1875C83.025 69.8625 82.6875 70.875 82.6875 71.8875V75.9375H79.3125V73.2375L81 71.55V68.5125L79.3125 66.825V64.8L81 63.1125V60.075L79.3125 58.3875V33.75H82.6875V29.5312L68.0062 18.5625H66.3187L52.3125 6.075V0H48.9375V6.075L34.7625 18.5625H33.075L18.5625 29.5312V33.75H21.9375V58.3875L20.25 60.075V63.1125L21.9375 64.8V66.825L20.25 68.5125V71.55L21.9375 73.2375V75.9375H18.5625V71.8875C18.5625 70.875 18.225 69.8625 17.7188 69.0188L15.1875 65.3063C14.85 62.4375 12.3187 60.4125 9.61875 60.75C7.25625 61.0875 5.4 62.9438 5.0625 65.3063L2.53125 69.1875C2.025 69.8625 1.6875 70.875 1.6875 71.8875V94.5H0V97.875H101.25V94.5H99.5625ZM96.1875 81H5.0625V79.3125H96.1875V81ZM86.0625 71.8875C86.0625 71.55 86.2313 71.2125 86.4 70.875L89.4375 66.3187V65.8125C89.4375 64.8 90.1125 64.125 91.125 64.125C92.1375 64.125 92.8125 64.8 92.8125 65.8125V66.3187L95.85 70.875C96.0187 71.2125 96.1875 71.55 96.1875 71.8875V75.9375H86.0625V71.8875ZM70.875 54V52.3125H75.9375V54H70.875ZM56.8688 18.5625L54.675 12.4875L61.425 18.5625H56.8688ZM53.325 18.5625H48.0938L50.7937 11.475L53.325 18.5625ZM44.3812 18.5625H39.825L46.575 12.4875L44.3812 18.5625ZM54.675 21.9375L59.4 30.375H41.6813L46.575 21.9375H54.675ZM69.1875 33.75V36.45L68.5125 37.125H64.125V33.75H69.1875ZM75.9375 48.9375H70.875V39.4875L72.5625 37.8V33.75H75.9375V48.9375ZM50.625 42.1875C46.9125 42.1875 43.875 45.225 43.875 48.9375H40.5V40.5H60.75V48.9375H57.375C57.375 45.225 54.3375 42.1875 50.625 42.1875ZM54 48.9375H47.25C47.25 47.0812 48.7687 45.5625 50.625 45.5625C52.4813 45.5625 54 47.0812 54 48.9375ZM64.125 40.5H67.5V48.9375H64.125V40.5ZM60.75 33.75V37.125H40.5V33.75H60.75ZM37.125 37.125H32.7375L32.0625 36.45V33.75H37.125V37.125ZM30.375 39.4875V48.9375H25.3125V33.75H28.6875V37.8L30.375 39.4875ZM33.75 40.5H37.125V48.9375H33.75V40.5ZM37.125 52.3125V54H33.75V52.3125H37.125ZM40.5 52.3125H43.875V54H40.5V52.3125ZM47.25 52.3125H54V54H47.25V52.3125ZM57.375 52.3125H60.75V54H57.375V52.3125ZM64.125 52.3125H67.5V54H64.125V52.3125ZM66.9938 21.9375L78.3 30.375H63.45L58.5563 21.9375H66.9938ZM34.2562 21.9375H42.525L37.6312 30.375H22.7812L34.2562 21.9375ZM25.3125 52.3125H30.375V54H25.3125V52.3125ZM23.625 70.2V69.8625L25.3125 68.175V63.45L23.625 61.7625V61.425L25.3125 59.7375V57.375H75.9375V59.7375L77.625 61.425V61.7625L75.9375 63.45V68.175L77.625 69.8625V70.2L75.9375 71.8875V75.9375H25.3125V71.8875L23.625 70.2ZM5.0625 71.8875C5.0625 71.55 5.23125 71.2125 5.4 70.875L8.4375 66.3187V65.8125C8.4375 64.8 9.1125 64.125 10.125 64.125C11.1375 64.125 11.8125 64.8 11.8125 65.8125V66.3187L14.85 70.875C15.0188 71.2125 15.1875 71.55 15.1875 71.8875V75.9375H5.0625V71.8875ZM5.0625 84.375H96.1875V94.5H5.0625V84.375Z" fill="black"/>
<path d="M55.6875 65.813C55.6875 62.9442 53.4938 60.7505 50.625 60.7505C47.7562 60.7505 45.5625 62.9442 45.5625 65.813V72.563H55.6875V65.813ZM52.3125 69.188H48.9375V65.813C48.9375 64.8005 49.6125 64.1255 50.625 64.1255C51.6375 64.1255 52.3125 64.8005 52.3125 65.813V69.188Z" fill="black"/>
<path d="M74.25 60.7505H59.0625V64.1255H74.25V60.7505Z" fill="black"/>
<path d="M74.25 69.188H59.0625V72.563H74.25V69.188Z" fill="black"/>
<path d="M42.1865 60.7505H26.999V64.1255H42.1865V60.7505Z" fill="black"/>
<path d="M42.1865 69.188H26.999V72.563H42.1865V69.188Z" fill="black"/>
<path d="M92.8115 69.188H89.4365V74.2505H92.8115V69.188Z" fill="black"/>
<path d="M11.8125 69.188H8.4375V74.2505H11.8125V69.188Z" fill="black"/>
<path d="M11.8125 86.063H8.4375V92.813H11.8125V86.063Z" fill="black"/>
<path d="M21.9365 86.063H18.5615V92.813H21.9365V86.063Z" fill="black"/>
<path d="M32.0625 86.063H28.6875V92.813H32.0625V86.063Z" fill="black"/>
<path d="M42.1865 86.063H38.8115V92.813H42.1865V86.063Z" fill="black"/>
<path d="M52.3125 86.063H48.9375V92.813H52.3125V86.063Z" fill="black"/>
<path d="M62.4375 86.063H59.0625V92.813H62.4375V86.063Z" fill="black"/>
<path d="M72.5615 86.063H69.1865V92.813H72.5615V86.063Z" fill="black"/>
<path d="M82.6875 86.063H79.3125V92.813H82.6875V86.063Z" fill="black"/>
</svg>
