<svg width="88" height="75" viewBox="0 0 88 75" fill="none" xmlns="http://www.w3.org/2000/svg">
<path fill-rule="evenodd" clip-rule="evenodd" d="M0 18.75C0 15.3008 2.7969 12.5 6.25 12.5H81.25C84.7031 12.5 87.5 15.3008 87.5 18.75V68.75C87.5 72.2031 84.7031 75 81.25 75H6.25C2.7969 75 0 72.2031 0 68.75V18.75ZM6.25 16.668C5.0977 16.668 4.168 17.6016 4.168 18.75V68.75C4.168 69.9023 5.09769 70.8359 6.25 70.8359H81.25C82.4023 70.8359 83.332 69.9023 83.332 68.75V18.75C83.332 17.6016 82.4023 16.668 81.25 16.668H6.25Z" fill="black"/>
<path fill-rule="evenodd" clip-rule="evenodd" d="M66.668 14.5859C66.668 13.4336 67.5977 12.5 68.75 12.5H81.25C84.7031 12.5 87.5 15.3008 87.5 18.75V31.25C87.5 32.4023 86.5664 33.3359 85.418 33.3359H77.0821C71.3321 33.3359 66.6681 28.6718 66.6681 22.9179L66.668 14.5859ZM70.8321 16.6679V22.9179C70.8321 26.371 73.6329 29.1679 77.0821 29.1679H83.3321V18.7499C83.3321 17.6015 82.4024 16.6679 81.2501 16.6679H70.8321Z" fill="black"/>
<path fill-rule="evenodd" clip-rule="evenodd" d="M20.832 14.5859C20.832 13.4336 19.9023 12.5 18.75 12.5H6.25C2.7969 12.5 0 15.3008 0 18.75V31.25C0 32.4023 0.93359 33.3359 2.082 33.3359H10.4179C16.1679 33.3359 20.8319 28.6718 20.8319 22.9179L20.832 14.5859ZM16.6679 16.6679V22.9179C16.6679 26.371 13.8671 29.1679 10.4179 29.1679H4.1679V18.7499C4.1679 17.6015 5.09759 16.6679 6.2499 16.6679H16.6679Z" fill="black"/>
<path fill-rule="evenodd" clip-rule="evenodd" d="M66.668 72.918C66.668 74.0703 67.5977 75 68.75 75H81.25C84.7031 75 87.5 72.2031 87.5 68.75V56.25C87.5 55.1016 86.5664 54.168 85.418 54.168H77.0821C71.3321 54.168 66.6681 58.8321 66.6681 64.586L66.668 72.918ZM70.8321 70.836V64.586C70.8321 61.1329 73.6329 58.336 77.0821 58.336H83.3321V68.75C83.3321 69.9023 82.4024 70.8359 81.2501 70.8359L70.8321 70.836Z" fill="black"/>
<path fill-rule="evenodd" clip-rule="evenodd" d="M20.832 72.918C20.832 74.0703 19.9023 75 18.75 75H6.25C2.7969 75 0 72.2031 0 68.75V56.25C0 55.1016 0.93359 54.168 2.082 54.168H10.4179C16.1679 54.168 20.8319 58.8321 20.8319 64.586L20.832 72.918ZM16.6679 70.836V64.586C16.6679 61.1329 13.8671 58.336 10.4179 58.336H4.1679V68.75C4.1679 69.9023 5.09759 70.8359 6.2499 70.8359L16.6679 70.836Z" fill="black"/>
<path fill-rule="evenodd" clip-rule="evenodd" d="M25 6.25C25 2.8008 27.7969 0 31.25 0H56.25C59.7031 0 62.5 2.8008 62.5 6.25V14.5859C62.5 15.7343 61.5664 16.6679 60.418 16.6679H27.082C25.9336 16.6679 25 15.7343 25 14.5859V6.25ZM31.25 4.168C30.0977 4.168 29.168 5.10159 29.168 6.25V12.5H58.332V6.25C58.332 5.1016 57.4023 4.168 56.25 4.168H31.25Z" fill="black"/>
<path fill-rule="evenodd" clip-rule="evenodd" d="M43.7499 32.801C40.0976 30.3908 35.1366 30.7932 31.9219 34.008C28.25 37.6799 28.25 43.633 31.9219 47.309L42.2769 57.664C42.6675 58.0546 43.1988 58.2734 43.7496 58.2734C44.3004 58.2734 44.8316 58.0546 45.2223 57.664L55.5773 47.309C59.2492 43.6332 59.2492 37.6801 55.5773 34.008C52.3625 30.7932 47.4021 30.3908 43.7499 32.801ZM42.2772 36.9533C40.2303 34.9064 36.9139 34.9064 34.867 36.9533C32.8201 39.0002 32.8201 42.3166 34.867 44.3595L43.7498 53.2423L52.6326 44.3595C54.6795 42.3165 54.6795 39.0001 52.6326 36.9533C50.5857 34.9064 47.2693 34.9064 45.2224 36.9533C44.4099 37.7658 43.0897 37.7658 42.2772 36.9533Z" fill="black"/>
</svg>
