<svg width="108" height="100" viewBox="0 0 108 100" fill="none" xmlns="http://www.w3.org/2000/svg">
<path fill-rule="evenodd" clip-rule="evenodd" d="M39.0841 19.2528C39.9263 19.6317 40.8792 19.195 41.2257 18.2688C41.6974 16.9847 42.7706 16.5637 43.6128 16.6058C44.455 16.6531 45.4752 17.1636 45.8362 18.495C46.0576 19.2475 46.6928 19.779 47.4098 19.779C48.1269 19.779 48.7622 19.2527 48.9691 18.495C49.3396 17.1635 50.3647 16.6531 51.2069 16.6058C52.0491 16.5584 53.1127 16.9847 53.5939 18.2688C53.9404 19.1897 54.8933 19.6265 55.7211 19.2528C56.5633 18.8739 56.9627 17.832 56.6307 16.9268C55.7067 14.4323 53.5073 12.9115 51.053 13.0326C49.643 13.1063 48.3724 13.7114 47.4051 14.6956C46.4378 13.7115 45.1673 13.1115 43.7573 13.0326C41.2836 12.9115 39.1036 14.4377 38.1796 16.9268C37.8571 17.8319 38.2564 18.8896 39.0841 19.2528ZM52.6314 6.21766C53.4735 6.59656 54.4264 6.15977 54.7585 5.23358C55.2398 3.94954 56.3034 3.54433 57.1456 3.5706C57.9878 3.61796 59.0224 4.14421 59.3834 5.47567C59.5903 6.2282 60.2256 6.74393 60.957 6.74393C61.6741 6.74393 62.3094 6.22821 62.5163 5.47567C62.8869 4.14426 63.9119 3.61802 64.7541 3.5706C65.5963 3.53903 66.6599 3.9495 67.1411 5.23358C67.4732 6.1545 68.4261 6.59128 69.2683 6.21766C70.1105 5.85455 70.51 4.81254 70.1683 3.8916C69.2443 1.39713 67.0594 -0.123715 64.605 0.00790623C63.195 0.0657938 61.9244 0.670981 60.9571 1.67088C59.9898 0.676276 58.7193 0.0710896 57.2995 0.00790623C54.8403 -0.113131 52.6603 1.39713 51.7363 3.8916C51.3898 4.81252 51.7892 5.85446 52.6314 6.21766ZM104.727 33.598C104.727 28.8249 100.997 24.7044 96.0404 23.994C95.2944 23.873 94.7025 23.2099 94.6303 22.3942C94.0239 15.7057 90.4049 10.6747 86.1939 10.6747C81.9974 10.6747 78.3638 15.7057 77.7671 22.3942C77.6998 23.2099 77.103 23.873 76.3571 23.994C71.4002 24.7044 67.6704 28.8249 67.6704 33.598C67.6704 38.9448 72.2568 43.3073 77.8923 43.3073C80.6259 43.3073 83.1958 42.2969 85.1304 40.455C85.1304 40.455 85.1304 40.4392 85.1448 40.4392C85.1593 40.4234 85.1881 40.4076 85.1978 40.3918C85.2266 40.376 85.2411 40.3445 85.2651 40.3339C85.2796 40.3182 85.3085 40.3024 85.3181 40.2866C85.347 40.2708 85.3614 40.255 85.3855 40.2392C85.4143 40.2234 85.4288 40.2234 85.4528 40.2076C85.4817 40.1919 85.4961 40.1761 85.5202 40.1603C85.5491 40.1603 85.5635 40.1445 85.5876 40.1287C85.6165 40.1287 85.6405 40.1129 85.655 40.0971C85.6838 40.0971 85.7079 40.0813 85.7223 40.0813C85.7512 40.0656 85.7753 40.0656 85.8041 40.0498C85.833 40.0498 85.8475 40.034 85.8715 40.034C85.9004 40.034 85.9389 40.0182 85.9678 40.0182H86.0207C86.0737 40.0024 86.1314 40.0024 86.1747 40.0024C86.2277 40.0024 86.2854 40.0024 86.3383 40.0182H86.3913C86.4201 40.0182 86.4442 40.034 86.4875 40.034C86.502 40.034 86.5308 40.0498 86.5549 40.0498C86.5838 40.0656 86.5982 40.0656 86.6223 40.0813C86.6511 40.0813 86.6752 40.0971 86.7041 40.0971C86.7185 40.1129 86.7474 40.1287 86.7715 40.1287C86.8003 40.1445 86.8148 40.1603 86.8388 40.1603C86.8677 40.1761 86.8822 40.1919 86.9062 40.2076C86.9351 40.2234 86.9495 40.2234 86.9736 40.2392C86.988 40.255 87.0169 40.2708 87.041 40.2866C87.0554 40.3024 87.0843 40.3182 87.0939 40.3339C87.1228 40.3497 87.1372 40.3813 87.1613 40.3918C87.1757 40.4076 87.2046 40.4234 87.2142 40.4392L87.2287 40.455C89.1633 42.2969 91.7332 43.3073 94.4667 43.3073C100.141 43.3073 104.727 38.9446 104.727 33.598ZM76.679 96.4217C75.8801 90.6225 71.3082 86.1651 65.7833 86.1651H40.4507C42.0389 89.291 42.8811 92.7801 42.9483 96.4217H76.679ZM39.6804 96.4217C39.5842 91.817 37.9816 87.4966 35.07 84.1128C31.8263 80.3081 27.4035 78.2083 22.639 78.2083C17.8745 78.2083 13.4567 80.3081 10.1932 84.1128C7.29117 87.4966 5.67895 91.8171 5.59234 96.4217H39.6804ZM38.2174 82.586C37.9672 82.2703 37.7217 81.9651 37.457 81.6651C35.3876 79.2338 32.8996 77.3919 30.1805 76.1974C32.8755 72.6031 36.947 70.4455 41.2446 70.4455C48.0255 70.4455 53.7138 75.5502 55.1676 82.5861L38.2174 82.586ZM22.3072 74.645C21.9896 69.8878 22.9424 65.162 25.0696 61.0262C27.3748 63.1997 29.9736 64.289 32.7215 64.289C35.5513 64.289 38.5206 63.1418 41.49 60.8473C44.9839 58.1424 48.1747 53.9324 50.3017 49.4909C59.8162 52.3589 66.5976 61.9787 66.5976 72.8822C66.5976 76.266 65.9768 79.5287 64.7448 82.5914H58.5029C57.8147 78.4814 55.9185 74.7399 53.0744 71.8981C49.8307 68.6511 45.6293 66.8671 41.2403 66.8671C35.5086 66.8671 30.0944 69.993 26.8368 75.0977C25.47 74.7977 24.06 74.6293 22.6403 74.6293C22.5296 74.6293 22.4179 74.645 22.3072 74.645ZM11.5607 48.4273C14.8188 49.3324 18.1876 49.8482 21.643 49.9849C22.0425 50.0007 22.3601 49.8639 22.6488 49.5481C22.9376 49.2324 23.0627 48.9745 23.0338 48.2483C23.0194 47.6115 22.7018 47.2537 22.4948 47.0853C22.3023 46.9327 21.8885 46.6801 21.335 46.8432C18.2886 47.7168 15.0402 48.2431 11.5607 48.4273ZM19.9874 43.5174C15.1652 41.9913 11.3826 38.8497 8.11009 33.6398C4.32744 27.6142 5.63645 19.4309 11.0217 15.384C16.1182 11.5635 22.9809 12.6948 26.9997 18.0099C27.3606 18.4941 27.3318 19.0045 27.274 19.2624C27.2211 19.536 27.0526 20.0149 26.5281 20.2728L26.0324 20.5464C25.4645 20.8359 24.8292 20.6833 24.4154 20.1675C21.4749 16.3628 16.5035 15.5628 12.8556 18.2941C8.94779 21.2253 8.00937 27.2193 10.7718 31.6292C11.6717 33.0763 13.0096 34.2289 14.9828 35.2393C20.5461 38.1073 26.5859 40.6175 33.7513 37.218C41.7882 33.3816 47.3712 33.0501 49.0406 36.2971C51.4998 41.0702 46.4707 52.5793 39.5935 57.9101C35.9745 60.7202 30.6566 62.8357 25.9071 56.9155C25.5606 56.4787 25.2044 56.0419 24.8435 55.6157C24.2227 54.8737 23.5875 54.1211 23.0339 53.3528C23.7366 53.1107 24.3863 52.6897 24.9397 52.0845C26.2102 50.7268 26.3353 49.2744 26.3065 48.1587C26.2776 46.6011 25.6039 45.1695 24.4681 44.2328C23.3227 43.2961 21.8837 42.9804 20.5025 43.3856C20.3293 43.4277 20.1655 43.4753 19.9874 43.5174ZM108 33.5976C108 40.923 101.951 46.8854 94.5058 46.8854C92.1284 46.8854 89.8521 46.2802 87.8355 45.1487V96.4216H92.1187C93.0187 96.4216 93.7502 97.2215 93.7502 98.2055C93.7502 99.2002 93.0187 100 92.1187 100H3.99159C3.13496 100 2.41794 99.258 2.36016 98.3213C1.98959 92.1168 3.91939 86.1965 7.80319 81.6659C10.8544 78.1033 14.7477 75.8087 19.0309 74.9774C18.6315 69.1308 19.902 63.3315 22.7029 58.3476C22.6067 58.2424 22.5249 58.1529 22.4382 58.0476C21.2207 56.6005 19.9646 55.1006 19.1224 53.3956C12.7409 52.8536 6.62361 51.0118 0.907072 47.9279C0.204442 47.549 -0.156501 46.6754 0.0648798 45.8439C0.271821 45.0125 1.00333 44.4705 1.79253 44.5441C6.25378 45.0283 10.3011 45.0598 14.0309 44.6336C10.7438 42.5813 7.88521 39.6184 5.41157 35.661C0.603886 28.0198 2.28817 17.6005 9.1702 12.4327C12.332 10.0593 16.1725 9.11212 19.9695 9.75931C23.7137 10.4066 27.097 12.5221 29.5128 15.727C30.4368 16.9373 30.7833 18.5056 30.4657 20.0474C30.1625 21.5735 29.2385 22.8418 27.9391 23.5049L27.4434 23.7785C25.5088 24.7731 23.2998 24.2469 21.933 22.4629C20.0706 20.079 16.9761 19.5474 14.7093 21.2525C12.2935 23.0629 11.7255 26.8255 13.4821 29.6198C14.0356 30.5092 14.9596 31.267 16.3841 32.0037C22.5008 35.1453 27.0873 36.4715 32.4434 33.9192C45.148 27.8779 50.0378 30.9143 51.8908 34.5402C53.479 37.5924 53.1612 41.8656 51.6694 46.186C56.5156 47.7543 60.8951 50.9275 64.1238 55.2638C67.8247 60.2001 69.87 66.4519 69.87 72.8716C69.87 76.3133 69.3022 79.6497 68.2 82.8072C74.3985 83.9702 79.2497 89.5117 79.9668 96.4166H84.5676L84.5628 45.1491C82.5463 46.2805 80.2699 46.8858 77.8925 46.8858C70.4475 46.8858 64.3983 40.9181 64.3983 33.598C64.3983 27.4672 68.7344 22.1206 74.673 20.6839C75.1832 17.195 76.4248 14.0111 78.2247 11.5904C80.3951 8.6749 83.2249 7.091 86.1943 7.091C89.1782 7.091 91.9934 8.67503 94.164 11.5904C95.9736 14.0059 97.2152 17.195 97.7252 20.6839C103.664 22.1206 108 27.4669 108 33.5976ZM31.1285 42.1281C31.1285 43.1121 31.86 43.9225 32.76 43.9225C33.6599 43.9225 34.401 43.1068 34.401 42.1281C34.401 41.1335 33.6551 40.3336 32.76 40.3336C31.86 40.3336 31.1285 41.1493 31.1285 42.1281Z" fill="black"/>
</svg>
